<mxfile host="app.diagrams.net" modified="2022-09-28T04:27:30.139Z" agent="5.0 (Windows NT 10.0; Win64; x64) AppleWebKit/537.36 (KHTML, like Gecko) Chrome/105.0.0.0 Safari/537.36" etag="7_Rso73iy0dU0LmXd2sv" version="20.3.6" type="github">
  <diagram name="Page-1" id="e7e014a7-5840-1c2e-5031-d8a46d1fe8dd">
    <mxGraphModel dx="621" dy="1108" grid="1" gridSize="10" guides="1" tooltips="1" connect="1" arrows="1" fold="1" page="1" pageScale="1" pageWidth="1169" pageHeight="1654" math="0" shadow="0">
      <root>
        <mxCell id="0" />
        <mxCell id="1" parent="0" />
        <mxCell id="2" value="Buyer Liaison ClerkÂ " style="swimlane;whiteSpace=wrap;rounded=0;deletable=0;movable=0;expand=1;collapsible=0;snapToPoint=1;" parent="1" vertex="1">
          <mxGeometry x="158.5" y="127" width="285.5" height="953" as="geometry" />
        </mxCell>
        <mxCell id="5" value="" style="ellipse;shape=startState;rounded=0;whiteSpace=wrap;fillColor=#1F1F1F;snapToPoint=1;" parent="2" vertex="1">
          <mxGeometry x="125" y="32" width="30" height="30" as="geometry" />
        </mxCell>
        <mxCell id="6" value="" style="edgeStyle=elbowEdgeStyle;elbow=horizontal;verticalAlign=bottom;endArrow=open;endSize=8;endFill=1;rounded=0;exitX=0.5;exitY=1;exitDx=0;exitDy=0;snapToPoint=1;entryX=0.5;entryY=0;entryDx=0;entryDy=0;" parent="2" source="5" target="7" edge="1">
          <mxGeometry x="100" y="40" as="geometry">
            <mxPoint x="115" y="110" as="targetPoint" />
            <mxPoint x="140.5" y="90" as="sourcePoint" />
          </mxGeometry>
        </mxCell>
        <mxCell id="7" value="Select &quot;Remove Buyer Suburb&quot; option" style="rounded=0;whiteSpace=wrap;snapToPoint=1;" parent="2" vertex="1">
          <mxGeometry x="60" y="82" width="160" height="50" as="geometry" />
        </mxCell>
        <mxCell id="bqYrFDz9AfAW0xV19m9E-46" value="Select option" style="whiteSpace=wrap;html=1;rounded=0;snapToPoint=1;" parent="2" vertex="1">
          <mxGeometry x="82.75" y="152" width="120" height="28" as="geometry" />
        </mxCell>
        <mxCell id="VSnS6wqzOySut8PEu_Ir-57" value="" style="rhombus;whiteSpace=wrap;html=1;rounded=0;snapToPoint=1;" parent="2" vertex="1">
          <mxGeometry x="22.5" y="433" width="37.25" height="38" as="geometry" />
        </mxCell>
        <mxCell id="h0bp7gTQh3Y6S4Nnvwro-19" value="Select option" style="whiteSpace=wrap;html=1;rounded=0;snapToPoint=1;" parent="2" vertex="1">
          <mxGeometry x="82.75" y="352.5" width="120" height="28" as="geometry" />
        </mxCell>
        <mxCell id="h0bp7gTQh3Y6S4Nnvwro-26" value="Select option" style="whiteSpace=wrap;html=1;rounded=0;snapToPoint=1;" parent="2" vertex="1">
          <mxGeometry x="82.75" y="587" width="120" height="28" as="geometry" />
        </mxCell>
        <mxCell id="3" value="System" style="swimlane;whiteSpace=wrap;rounded=0;deletable=0;movable=0;expand=1;collapsible=0;snapToPoint=1;" parent="1" vertex="1">
          <mxGeometry x="444.5" y="127" width="285.5" height="953" as="geometry" />
        </mxCell>
        <mxCell id="h0bp7gTQh3Y6S4Nnvwro-7" style="edgeStyle=orthogonalEdgeStyle;rounded=0;orthogonalLoop=1;jettySize=auto;html=1;exitX=0.5;exitY=1;exitDx=0;exitDy=0;entryX=0.5;entryY=0;entryDx=0;entryDy=0;snapToPoint=1;" parent="3" source="bqYrFDz9AfAW0xV19m9E-42" target="bqYrFDz9AfAW0xV19m9E-44" edge="1">
          <mxGeometry relative="1" as="geometry" />
        </mxCell>
        <mxCell id="bqYrFDz9AfAW0xV19m9E-42" value="Display &quot;Remove Buyer Suburb&quot; form" style="whiteSpace=wrap;html=1;rounded=0;snapToPoint=1;" parent="3" vertex="1">
          <mxGeometry x="64.13" y="82" width="157.25" height="50" as="geometry" />
        </mxCell>
        <mxCell id="bqYrFDz9AfAW0xV19m9E-44" value="List all buyers with suburbs" style="whiteSpace=wrap;html=1;rounded=0;snapToPoint=1;" parent="3" vertex="1">
          <mxGeometry x="64.13" y="152" width="157.25" height="28" as="geometry" />
        </mxCell>
        <mxCell id="h0bp7gTQh3Y6S4Nnvwro-15" style="edgeStyle=orthogonalEdgeStyle;rounded=0;orthogonalLoop=1;jettySize=auto;html=1;exitX=0.5;exitY=1;exitDx=0;exitDy=0;entryX=0.5;entryY=0;entryDx=0;entryDy=0;" parent="3" source="bqYrFDz9AfAW0xV19m9E-48" target="VSnS6wqzOySut8PEu_Ir-7" edge="1">
          <mxGeometry relative="1" as="geometry" />
        </mxCell>
        <mxCell id="bqYrFDz9AfAW0xV19m9E-48" value="" style="rhombus;whiteSpace=wrap;html=1;rounded=0;snapToPoint=1;" parent="3" vertex="1">
          <mxGeometry x="121.37" y="213" width="37.25" height="38" as="geometry" />
        </mxCell>
        <mxCell id="h0bp7gTQh3Y6S4Nnvwro-16" style="edgeStyle=orthogonalEdgeStyle;rounded=0;orthogonalLoop=1;jettySize=auto;html=1;exitX=0.5;exitY=1;exitDx=0;exitDy=0;entryX=0.5;entryY=0;entryDx=0;entryDy=0;" parent="3" source="VSnS6wqzOySut8PEu_Ir-7" target="h0bp7gTQh3Y6S4Nnvwro-9" edge="1">
          <mxGeometry relative="1" as="geometry" />
        </mxCell>
        <mxCell id="VSnS6wqzOySut8PEu_Ir-7" value="Display buyer details" style="whiteSpace=wrap;html=1;rounded=0;snapToPoint=1;" parent="3" vertex="1">
          <mxGeometry x="64.76" y="290" width="150" height="30" as="geometry" />
        </mxCell>
        <mxCell id="VSnS6wqzOySut8PEu_Ir-62" value="[elect to remove]" style="edgeStyle=orthogonalEdgeStyle;rounded=0;orthogonalLoop=1;jettySize=auto;html=1;exitX=0.5;exitY=1;exitDx=0;exitDy=0;fontFamily=Helvetica;fontSize=12;fontColor=default;snapToPoint=1;entryX=0.5;entryY=0;entryDx=0;entryDy=0;" parent="3" source="VSnS6wqzOySut8PEu_Ir-11" target="h0bp7gTQh3Y6S4Nnvwro-22" edge="1">
          <mxGeometry relative="1" as="geometry">
            <mxPoint x="139.5" y="518" as="targetPoint" />
          </mxGeometry>
        </mxCell>
        <mxCell id="VSnS6wqzOySut8PEu_Ir-11" value="" style="rhombus;whiteSpace=wrap;html=1;rounded=0;snapToPoint=1;" parent="3" vertex="1">
          <mxGeometry x="121.5" y="433" width="37.25" height="38" as="geometry" />
        </mxCell>
        <mxCell id="VSnS6wqzOySut8PEu_Ir-33" value="Display exit prompt" style="whiteSpace=wrap;html=1;rounded=0;snapToPoint=1;" parent="3" vertex="1">
          <mxGeometry x="79.76" y="587" width="120" height="27.75" as="geometry" />
        </mxCell>
        <mxCell id="VSnS6wqzOySut8PEu_Ir-43" value="" style="edgeStyle=orthogonalEdgeStyle;rounded=0;orthogonalLoop=1;jettySize=auto;html=1;fontFamily=Helvetica;fontSize=12;fontColor=default;snapToPoint=1;" parent="3" source="VSnS6wqzOySut8PEu_Ir-39" target="VSnS6wqzOySut8PEu_Ir-41" edge="1">
          <mxGeometry relative="1" as="geometry" />
        </mxCell>
        <mxCell id="VSnS6wqzOySut8PEu_Ir-39" value="Close &quot;Remove Buyer Suburb&quot; form" style="whiteSpace=wrap;html=1;rounded=0;snapToPoint=1;" parent="3" vertex="1">
          <mxGeometry x="79.99000000000001" y="826" width="120" height="44.5" as="geometry" />
        </mxCell>
        <mxCell id="VSnS6wqzOySut8PEu_Ir-41" value="" style="ellipse;html=1;shape=endState;fillColor=#000000;strokeColor=#ff0000;rounded=0;fontFamily=Helvetica;fontSize=12;fontColor=default;snapToPoint=1;" parent="3" vertex="1">
          <mxGeometry x="124.99000000000001" y="896" width="30" height="30" as="geometry" />
        </mxCell>
        <mxCell id="VSnS6wqzOySut8PEu_Ir-53" value="[remove another &lt;br&gt;suburb]" style="edgeStyle=orthogonalEdgeStyle;rounded=0;orthogonalLoop=1;jettySize=auto;html=1;exitX=1;exitY=0.5;exitDx=0;exitDy=0;fontFamily=Helvetica;fontSize=12;fontColor=default;entryX=1;entryY=0.5;entryDx=0;entryDy=0;snapToPoint=1;" parent="3" source="h0bp7gTQh3Y6S4Nnvwro-28" target="bqYrFDz9AfAW0xV19m9E-42" edge="1">
          <mxGeometry x="-0.8428" relative="1" as="geometry">
            <mxPoint x="255.5" y="101.33333333333334" as="targetPoint" />
            <Array as="points">
              <mxPoint x="158" y="693" />
              <mxPoint x="266" y="693" />
              <mxPoint x="266" y="107" />
            </Array>
            <mxPoint as="offset" />
          </mxGeometry>
        </mxCell>
        <mxCell id="h0bp7gTQh3Y6S4Nnvwro-9" value="Display list of suburbs for selected buyer" style="whiteSpace=wrap;html=1;rounded=0;" parent="3" vertex="1">
          <mxGeometry x="64.76" y="343" width="150" height="47" as="geometry" />
        </mxCell>
        <mxCell id="h0bp7gTQh3Y6S4Nnvwro-25" style="edgeStyle=orthogonalEdgeStyle;rounded=0;orthogonalLoop=1;jettySize=auto;html=1;exitX=0.5;exitY=1;exitDx=0;exitDy=0;entryX=0.5;entryY=0;entryDx=0;entryDy=0;" parent="3" source="h0bp7gTQh3Y6S4Nnvwro-22" target="VSnS6wqzOySut8PEu_Ir-33" edge="1">
          <mxGeometry relative="1" as="geometry" />
        </mxCell>
        <mxCell id="h0bp7gTQh3Y6S4Nnvwro-22" value="Delete buyer suburb details" style="rounded=0;whiteSpace=wrap;html=1;" parent="3" vertex="1">
          <mxGeometry x="79.76" y="518" width="120" height="47" as="geometry" />
        </mxCell>
        <mxCell id="neDA6W62aE-01fKnXoZc-8" value="[exit]" style="edgeStyle=orthogonalEdgeStyle;rounded=0;orthogonalLoop=1;jettySize=auto;html=1;exitX=0.5;exitY=1;exitDx=0;exitDy=0;entryX=0.5;entryY=0;entryDx=0;entryDy=0;" edge="1" parent="3" source="h0bp7gTQh3Y6S4Nnvwro-28" target="neDA6W62aE-01fKnXoZc-7">
          <mxGeometry relative="1" as="geometry" />
        </mxCell>
        <mxCell id="h0bp7gTQh3Y6S4Nnvwro-28" value="" style="rhombus;whiteSpace=wrap;html=1;rounded=0;snapToPoint=1;" parent="3" vertex="1">
          <mxGeometry x="121.13" y="673" width="37.25" height="38" as="geometry" />
        </mxCell>
        <mxCell id="neDA6W62aE-01fKnXoZc-9" style="edgeStyle=orthogonalEdgeStyle;rounded=0;orthogonalLoop=1;jettySize=auto;html=1;exitX=0.5;exitY=1;exitDx=0;exitDy=0;entryX=0.5;entryY=0;entryDx=0;entryDy=0;" edge="1" parent="3" source="neDA6W62aE-01fKnXoZc-7" target="VSnS6wqzOySut8PEu_Ir-39">
          <mxGeometry relative="1" as="geometry" />
        </mxCell>
        <mxCell id="neDA6W62aE-01fKnXoZc-7" value="" style="rhombus;whiteSpace=wrap;html=1;rounded=0;snapToPoint=1;" vertex="1" parent="3">
          <mxGeometry x="121.13" y="763" width="37.25" height="37" as="geometry" />
        </mxCell>
        <mxCell id="bqYrFDz9AfAW0xV19m9E-43" value="" style="edgeStyle=orthogonalEdgeStyle;rounded=0;orthogonalLoop=1;jettySize=auto;html=1;snapToPoint=1;" parent="1" source="7" target="bqYrFDz9AfAW0xV19m9E-42" edge="1">
          <mxGeometry relative="1" as="geometry" />
        </mxCell>
        <mxCell id="bqYrFDz9AfAW0xV19m9E-47" value="" style="edgeStyle=orthogonalEdgeStyle;rounded=0;orthogonalLoop=1;jettySize=auto;html=1;snapToPoint=1;" parent="1" source="bqYrFDz9AfAW0xV19m9E-44" target="bqYrFDz9AfAW0xV19m9E-46" edge="1">
          <mxGeometry relative="1" as="geometry" />
        </mxCell>
        <mxCell id="bqYrFDz9AfAW0xV19m9E-49" value="" style="edgeStyle=orthogonalEdgeStyle;rounded=0;orthogonalLoop=1;jettySize=auto;html=1;entryX=0.5;entryY=0;entryDx=0;entryDy=0;snapToPoint=1;" parent="1" source="bqYrFDz9AfAW0xV19m9E-46" target="bqYrFDz9AfAW0xV19m9E-48" edge="1">
          <mxGeometry relative="1" as="geometry">
            <Array as="points">
              <mxPoint x="301" y="320" />
              <mxPoint x="585" y="320" />
            </Array>
          </mxGeometry>
        </mxCell>
        <mxCell id="VSnS6wqzOySut8PEu_Ir-52" value="[cancel operation]" style="endArrow=classic;html=1;rounded=0;fontFamily=Helvetica;fontSize=12;fontColor=default;snapToPoint=1;exitX=0;exitY=0.5;exitDx=0;exitDy=0;entryX=1;entryY=0.5;entryDx=0;entryDy=0;" parent="1" source="VSnS6wqzOySut8PEu_Ir-11" target="VSnS6wqzOySut8PEu_Ir-57" edge="1">
          <mxGeometry x="0.4681" width="50" height="50" relative="1" as="geometry">
            <mxPoint x="380" y="940" as="sourcePoint" />
            <mxPoint x="230" y="580" as="targetPoint" />
            <Array as="points" />
            <mxPoint as="offset" />
          </mxGeometry>
        </mxCell>
        <mxCell id="VSnS6wqzOySut8PEu_Ir-59" value="[cancel operation]" style="edgeStyle=orthogonalEdgeStyle;rounded=0;orthogonalLoop=1;jettySize=auto;html=1;exitX=0;exitY=0.5;exitDx=0;exitDy=0;entryX=0.5;entryY=0;entryDx=0;entryDy=0;fontFamily=Helvetica;fontSize=12;fontColor=default;snapToPoint=1;" parent="1" source="bqYrFDz9AfAW0xV19m9E-48" target="VSnS6wqzOySut8PEu_Ir-57" edge="1">
          <mxGeometry relative="1" as="geometry" />
        </mxCell>
        <mxCell id="h0bp7gTQh3Y6S4Nnvwro-20" style="edgeStyle=orthogonalEdgeStyle;rounded=0;orthogonalLoop=1;jettySize=auto;html=1;exitX=0;exitY=0.5;exitDx=0;exitDy=0;" parent="1" source="h0bp7gTQh3Y6S4Nnvwro-9" target="h0bp7gTQh3Y6S4Nnvwro-19" edge="1">
          <mxGeometry relative="1" as="geometry" />
        </mxCell>
        <mxCell id="h0bp7gTQh3Y6S4Nnvwro-21" style="edgeStyle=orthogonalEdgeStyle;rounded=0;orthogonalLoop=1;jettySize=auto;html=1;exitX=0.5;exitY=1;exitDx=0;exitDy=0;entryX=0.5;entryY=0;entryDx=0;entryDy=0;" parent="1" source="h0bp7gTQh3Y6S4Nnvwro-19" target="VSnS6wqzOySut8PEu_Ir-11" edge="1">
          <mxGeometry relative="1" as="geometry" />
        </mxCell>
        <mxCell id="h0bp7gTQh3Y6S4Nnvwro-27" style="edgeStyle=orthogonalEdgeStyle;rounded=0;orthogonalLoop=1;jettySize=auto;html=1;exitX=0;exitY=0.5;exitDx=0;exitDy=0;entryX=1;entryY=0.5;entryDx=0;entryDy=0;" parent="1" source="VSnS6wqzOySut8PEu_Ir-33" target="h0bp7gTQh3Y6S4Nnvwro-26" edge="1">
          <mxGeometry relative="1" as="geometry" />
        </mxCell>
        <mxCell id="h0bp7gTQh3Y6S4Nnvwro-29" style="edgeStyle=orthogonalEdgeStyle;rounded=0;orthogonalLoop=1;jettySize=auto;html=1;exitX=0.5;exitY=1;exitDx=0;exitDy=0;entryX=0.5;entryY=0;entryDx=0;entryDy=0;" parent="1" source="h0bp7gTQh3Y6S4Nnvwro-26" target="h0bp7gTQh3Y6S4Nnvwro-28" edge="1">
          <mxGeometry relative="1" as="geometry" />
        </mxCell>
        <mxCell id="VSnS6wqzOySut8PEu_Ir-60" style="edgeStyle=orthogonalEdgeStyle;rounded=0;orthogonalLoop=1;jettySize=auto;html=1;exitX=0.5;exitY=1;exitDx=0;exitDy=0;fontFamily=Helvetica;fontSize=12;fontColor=default;snapToPoint=1;entryX=0;entryY=0.5;entryDx=0;entryDy=0;" parent="1" source="VSnS6wqzOySut8PEu_Ir-57" target="neDA6W62aE-01fKnXoZc-7" edge="1">
          <mxGeometry relative="1" as="geometry">
            <mxPoint x="200" y="970" as="targetPoint" />
          </mxGeometry>
        </mxCell>
      </root>
    </mxGraphModel>
  </diagram>
</mxfile>
